<?xml version="1.0" standalone="no"?>
<!DOCTYPE svg PUBLIC "-//W3C//DTD SVG 20010904//EN"
 "http://www.w3.org/TR/2001/REC-SVG-20010904/DTD/svg10.dtd">
<svg version="1.0" xmlns="http://www.w3.org/2000/svg"
 width="402.000000pt" height="436.000000pt" viewBox="0 0 402.000000 436.000000"
 preserveAspectRatio="xMidYMid meet">

<g transform="translate(0.000000,436.000000) scale(0.100000,-0.100000)"
fill="#000000" stroke="none">
<path d="M0 2180 l0 -2180 2010 0 2010 0 0 2180 0 2180 -2010 0 -2010 0 0
-2180z m1120 1705 c116 -176 214 -321 218 -322 4 -2 42 23 84 55 151 113 331
189 526 222 462 80 928 -108 1209 -487 154 -208 231 -430 240 -698 8 -219 -27
-392 -118 -580 -71 -149 -221 -345 -263 -345 -13 0 -25 3 -28 6 -3 3 -393 5
-865 4 l-860 -1 -54 29 c-63 33 -95 76 -105 139 -4 26 -28 90 -55 142 -112
222 -161 491 -130 709 l7 52 -55 0 c-125 0 -219 102 -209 225 6 73 46 130 116
168 l52 28 0 490 0 490 23 8 c14 6 28 5 39 -2 9 -7 112 -156 228 -332z m420
-2551 c36 -22 70 -71 70 -103 0 -18 -6 -21 -40 -21 -34 0 -42 4 -50 24 -20 52
-98 73 -159 41 -32 -16 -41 -33 -41 -76 0 -46 35 -73 120 -94 141 -34 184 -70
184 -154 -1 -60 -25 -105 -76 -139 -36 -23 -52 -27 -112 -27 -85 0 -140 24
-173 74 -37 54 -31 71 22 71 34 0 45 -4 45 -15 0 -9 11 -27 25 -40 18 -19 35
-25 70 -25 90 0 140 55 111 124 -15 36 -35 46 -136 71 -85 22 -117 39 -140 78
-34 55 -21 147 28 190 54 49 186 60 252 21z m320 -214 c46 -127 87 -227 91
-223 4 5 43 106 87 226 44 121 83 221 85 224 3 2 23 3 44 1 l39 -3 -106 -275
-105 -275 -45 -3 -45 -3 -105 272 c-58 149 -106 276 -108 280 -2 5 16 9 40 9
l45 0 83 -230z m550 0 c46 -127 87 -227 91 -223 4 5 43 106 87 226 44 121 83
221 85 224 3 2 23 3 44 1 l39 -3 -106 -275 -105 -275 -45 -3 -45 -3 -105 272
c-58 149 -106 276 -108 280 -2 5 16 9 40 9 l45 0 83 -230z m-2241 -667 c6 -20
16 -60 22 -90 7 -29 15 -53 18 -53 4 0 17 41 30 90 21 80 26 90 46 90 20 0 25
-10 47 -97 l25 -98 12 45 c39 142 42 150 62 150 10 0 19 -2 19 -3 0 -2 -16
-57 -35 -123 -19 -65 -35 -120 -35 -121 0 -2 -10 -3 -23 -3 -21 0 -26 9 -47
92 -26 101 -25 101 -60 -19 -18 -62 -24 -73 -43 -73 -20 0 -25 12 -51 108 -16
59 -31 115 -33 125 -4 12 0 17 15 17 16 0 24 -10 31 -37z m511 22 c0 -11 -12
-15 -50 -15 l-50 0 0 -40 0 -40 45 0 c33 0 45 -4 45 -15 0 -11 -12 -15 -45
-15 l-45 0 0 -40 0 -40 50 0 c38 0 50 -4 50 -15 0 -12 -14 -15 -70 -15 l-70 0
0 125 0 125 70 0 c56 0 70 -3 70 -15z m361 -82 l44 -97 44 97 c33 71 49 97 63
97 16 0 18 -10 18 -125 0 -118 -1 -125 -20 -125 -18 0 -20 7 -20 78 l-1 77
-33 -75 c-23 -52 -39 -75 -51 -75 -12 0 -28 23 -51 75 l-33 75 -1 -77 c0 -71
-2 -78 -20 -78 -19 0 -20 7 -20 125 0 115 1 125 19 125 13 0 29 -25 62 -97z
m446 -28 c23 -66 42 -121 43 -122 0 -2 -9 -3 -20 -3 -13 0 -24 10 -30 25 -8
22 -15 25 -60 25 -45 0 -52 -3 -60 -25 -6 -15 -17 -25 -29 -25 -21 0 -24 -8
64 238 3 7 15 12 27 10 20 -3 29 -21 65 -123z m183 73 l1 -53 47 53 c32 35 55
52 71 52 21 0 19 -6 -32 -63 l-56 -63 56 -62 c51 -58 53 -62 30 -62 -18 0 -39
15 -71 52 l-46 53 0 -53 c0 -45 -3 -52 -20 -52 -19 0 -20 7 -20 125 0 118 1
125 20 125 17 0 20 -7 20 -52z m370 37 c0 -11 -12 -15 -45 -15 l-45 0 0 -40 0
-40 40 0 c29 0 40 -4 40 -15 0 -11 -11 -15 -40 -15 l-40 0 0 -40 0 -40 45 0
c33 0 45 -4 45 -15 0 -12 -14 -15 -65 -15 l-65 0 0 125 0 125 65 0 c51 0 65
-3 65 -15z m320 -110 c0 -118 -1 -125 -20 -125 -19 0 -20 7 -20 125 0 118 1
125 20 125 19 0 20 -7 20 -125z m270 110 c0 -10 -10 -15 -30 -15 l-30 0 0
-110 c0 -103 -1 -110 -20 -110 -19 0 -20 7 -20 109 l0 110 -32 3 c-17 2 -33 9
-36 16 -3 9 18 12 82 12 70 0 86 -3 86 -15z m417 0 c11 -8 24 -26 27 -40 8
-30 -18 -85 -39 -85 -21 0 -19 -6 15 -61 l30 -49 -24 0 c-18 0 -32 12 -55 50
-17 28 -35 50 -41 50 -5 0 -10 -22 -10 -50 0 -43 -3 -50 -20 -50 -19 0 -20 7
-20 125 l0 125 58 0 c35 0 66 -6 79 -15z m273 0 c0 -11 -12 -15 -45 -15 l-45
0 0 -40 0 -40 40 0 c29 0 40 -4 40 -15 0 -11 -11 -15 -40 -15 l-40 0 0 -40 0
-40 45 0 c33 0 45 -4 45 -15 0 -12 -14 -15 -65 -15 l-65 0 0 125 0 125 65 0
c51 0 65 -3 65 -15z m277 -110 c23 -66 42 -121 43 -122 0 -2 -9 -3 -20 -3 -13
0 -24 10 -30 25 -8 22 -15 25 -60 25 -45 0 -52 -3 -60 -25 -6 -15 -17 -25 -29
-25 -21 0 -24 -8 64 238 3 7 15 12 27 10 20 -3 29 -21 65 -123z m183 16 l0
-110 42 -3 c23 -2 43 -9 46 -15 3 -10 -14 -13 -62 -13 l-66 0 0 125 c0 118 1
125 20 125 19 0 20 -7 20 -109z"/>
<path d="M920 3604 c0 -170 -3 -346 -7 -391 l-6 -82 -27 6 c-58 11 -130 -57
-130 -122 0 -16 9 -43 19 -59 54 -81 169 -73 207 14 17 38 20 40 61 40 37 0
43 -3 43 -20 0 -24 -25 -76 -48 -103 -19 -21 -27 -116 -26 -297 0 -130 11
-196 47 -315 l22 -70 3 109 c1 61 8 116 14 123 8 10 57 13 204 13 107 0 194 4
194 8 0 10 -559 1445 -565 1451 -3 2 -5 -135 -5 -305z"/>
<path d="M1968 3754 c-170 -30 -343 -102 -478 -197 -118 -82 -142 -18 207
-547 168 -256 309 -469 313 -473 4 -5 19 24 34 63 l26 71 0 329 c0 285 2 331
16 344 14 14 72 16 487 16 l471 0 -54 56 c-74 75 -202 171 -297 221 -212 113
-495 159 -725 117z"/>
<path d="M1242 3350 c8 -19 90 -230 183 -467 l168 -433 64 0 c34 0 63 2 63 4
0 8 -473 911 -483 921 -5 6 -3 -6 5 -25z"/>
<path d="M3090 2865 l0 -415 24 0 c50 0 56 -18 56 -185 0 -180 -3 -185 -99
-185 l-54 0 27 -25 c15 -14 34 -41 42 -61 19 -46 27 -39 86 73 151 286 180
615 81 910 -36 109 -136 303 -155 303 -4 0 -8 -187 -8 -415z"/>
<path d="M2160 2990 l0 -280 180 0 180 0 0 280 0 280 -180 0 -180 0 0 -280z"/>
<path d="M2117 2537 c-15 -41 -27 -77 -27 -81 0 -3 77 -5 171 -4 l171 3 23 58
c44 108 60 97 -137 97 l-173 0 -28 -73z"/>
<path d="M1170 2265 l0 -95 500 0 500 0 0 95 0 95 -500 0 -500 0 0 -95z"/>
<path d="M1130 2076 c0 -2 6 -9 14 -15 10 -9 16 -8 26 4 11 13 8 15 -14 15
-14 0 -26 -2 -26 -4z"/>
<path d="M1278 2023 c-14 -2 -38 -15 -53 -28 -25 -24 -25 -26 -10 -55 12 -22
13 -35 5 -50 -9 -16 -6 -22 17 -37 21 -14 53 -19 147 -22 113 -3 119 -2 111
15 -25 62 -25 104 0 167 7 16 -1 17 -91 16 -55 -1 -111 -4 -126 -6z"/>
<path d="M1926 2020 c-79 -24 -102 -102 -45 -156 30 -28 33 -29 151 -33 l121
-3 -8 23 c-17 51 -17 116 -1 148 l17 31 -103 -1 c-57 0 -116 -5 -132 -9z"/>
<path d="M1398 370 l-16 -50 39 0 c21 0 39 1 39 3 0 14 -33 97 -39 97 -4 0
-14 -22 -23 -50z"/>
<path d="M2950 415 c0 -43 1 -45 29 -45 29 0 61 22 61 41 0 29 -22 49 -55 49
-35 0 -35 0 -35 -45z"/>
<path d="M3508 370 l-16 -50 39 0 c21 0 39 1 39 3 0 14 -33 97 -39 97 -4 0
-14 -22 -23 -50z"/>
</g>
</svg>
